<?xml version="1.0" encoding="UTF-8"?>
<svg width="100%" height="100%" viewBox="0 0 48 48" version="1.1" xmlns="http://www.w3.org/2000/svg" xmlns:xlink="http://www.w3.org/1999/xlink">
    <title>Close Button</title>
    <g id="48x48" stroke="none" stroke-width="1" fill="none" fill-rule="evenodd">
        <rect id="Rectangle" stroke="currentColor" stroke-width="2" x="1" y="1" width="46" height="46" rx="23"></rect>
        <path d="M8.86140374,11.4799857 L36.0849855,38.7035674 C35.0570155,38.8251426 33.9854554,38.4915521 33.1966991,37.7027958 L24.040099,28.5453303 L14.7114178,37.8743687 C13.3445827,39.2412037 11.1285053,39.2412037 9.7616703,37.8743687 C8.39483528,36.5075336 8.39483528,34.2914562 9.7616703,32.9246212 L19.0903515,23.5955829 L9.86217536,14.368272 C9.07341906,13.5795157 8.73982852,12.5079557 8.86140374,11.4799857 Z M14.8119228,9.41852455 L24.040099,18.6458354 L33.0961941,9.59009742 C34.4630291,8.2232624 36.6791065,8.2232624 38.0459415,9.59009742 C39.4127766,10.9569324 39.4127766,13.1730099 38.0459415,14.5398449 L28.9898464,23.5955829 L38.1464466,32.7530483 C39.5132816,34.1198833 39.5132816,36.3359608 38.1464466,37.7027958 C37.8577138,37.9915286 37.5310851,38.2192689 37.182571,38.3860168 L9.17895433,10.3824001 C9.34570222,10.033886 9.57344256,9.70725735 9.86217536,9.41852455 C11.2290104,8.05168953 13.4450878,8.05168953 14.8119228,9.41852455 Z" id="Combined-Shape" fill="currentColor"></path>
    </g>
</svg>