<?xml version="1.0" encoding="UTF-8"?>
<svg height="100%" viewBox="0 0 48 48" version="1.1" xmlns="http://www.w3.org/2000/svg" xmlns:xlink="http://www.w3.org/1999/xlink">
    <title>share@1x</title>
    <g id="share" stroke="none" stroke-width="1" fill="none" fill-rule="evenodd">
        <path d="M39.6521739,22.5 C43.5178324,22.5 46.5,25.9294927 46.5,30 L46.5,39 C46.5,43.0705073 43.5178324,46.5 39.6521739,46.5 L8.34782609,46.5 C6.39586458,46.5 4.6691701,45.6255693 3.43794481,44.2357211 L3.43794481,24.7642789 C4.6691701,23.3744307 6.39586458,22.5 8.34782609,22.5 C9.72853796,22.5 10.8478261,23.6192881 10.8478261,25 C10.8478261,26.3807119 9.72853796,27.5 8.34782609,27.5 C7.41100852,27.5 6.5,28.5476598 6.5,30 L6.5,39 C6.5,40.4523402 7.41100852,41.5 8.34782609,41.5 L39.6521739,41.5 C40.5889915,41.5 41.5,40.4523402 41.5,39 L41.5,30 C41.5,28.5476598 40.5889915,27.5 39.6521739,27.5 C38.271462,27.5 37.1521739,26.3807119 37.1521739,25 C37.1521739,23.6192881 38.271462,22.5 39.6521739,22.5 Z M2.43778728,26.2059706 L2.43778728,42.7940294 C1.83946243,41.6737147 1.5,40.373341 1.5,39 L1.5,30 C1.5,28.626659 1.83946243,27.3262853 2.43778728,26.2059706 Z" id="Combined-Shape" fill="#000000" fill-rule="nonzero"></path>
        <path d="M24.0842759,4.00000234 C24.6742367,4.00073842 25.2698877,4.17507079 25.7906699,4.5372038 L35.7174891,11.439952 L35.7334458,11.4511251 C37.0813038,12.4014799 37.4035438,14.2645496 36.453189,15.6124076 L36.4386619,15.6330109 C35.4883035,16.9808741 33.6281575,17.3088605 32.2741236,16.3673147 L26.933027,12.653 L26.9336136,32.0133456 C26.9336136,33.6701999 25.5904678,35.0133456 23.9336136,35.0133456 L23.8942039,35.0133456 C23.5824342,35.0133456 23.2817723,34.9657878 22.9990769,34.8775309 L22.9991261,4.14468379 C23.3257774,4.03903045 23.6643282,3.99204133 23.9997809,4.00109575 L24.0842759,4.00000234 Z M21.999027,4.682 L21.9994199,34.3393627 C21.3249232,33.7892515 20.8942039,32.9515985 20.8942039,32.0133456 L20.894027,12.772 L15.7249871,16.3673147 C14.3709532,17.3088605 12.5108072,16.9808741 11.5604487,15.6330109 L11.5459217,15.6124076 C10.5955668,14.2645496 10.9178068,12.4014799 12.2656649,11.4511251 L12.2816216,11.439952 L21.999027,4.682 Z" id="Combined-Shape" fill="#000000"></path>
    </g>
</svg>