<?xml version="1.0" encoding="UTF-8"?>
<svg width="34px" height="26px" viewBox="0 0 34 26" version="1.1" xmlns="http://www.w3.org/2000/svg" xmlns:xlink="http://www.w3.org/1999/xlink">
    <title>Combined Shape</title>
    <g id="Page-1" stroke="none" stroke-width="1" fill="none" fill-rule="evenodd">
        <g id="48x48" transform="translate(-8, -12)" fill="#000000">
            <path d="M8.61345118,24.814081 L20.895245,37.0941274 C20.1958672,37.289625 19.4476058,37.2637473 18.7611693,37.0164944 C18.2087039,36.8587717 17.6878979,36.5622666 17.2530483,36.127417 L9.47487373,28.3492424 C8.51835309,27.3927218 8.23121224,26.0203018 8.61345118,24.814081 Z M40.1022907,13.5710678 C41.4691258,14.9379028 41.4691258,17.1539803 40.1022907,18.5208153 L22.4246212,36.1984848 C22.25141,36.371696 22.0645607,36.5229572 21.86753,36.6522683 L9.08191306,23.8669797 C9.19714616,23.7027644 9.32813306,23.5462356 9.47487373,23.3994949 C10.8417088,22.0326599 13.0577862,22.0326599 14.4246212,23.3994949 L19.8747186,28.8487414 L35.1525433,13.5710678 C36.5193783,12.2042328 38.7354557,12.2042328 40.1022907,13.5710678 Z" id="Combined-Shape"></path>
        </g>
    </g>
</svg>