<svg width="80" height="80" viewBox="0 0 80 80" fill="none" xmlns="http://www.w3.org/2000/svg">
<circle cx="12" cy="12" r="11" transform="matrix(-1 0 0 1 26 2)" stroke="black" stroke-width="2"/>
<circle cx="12" cy="12" r="11" transform="matrix(-1 0 0 1 52 2)" stroke="black" stroke-width="2"/>
<g>
<circle cx="12" cy="12" r="11" transform="matrix(-1 0 0 1 78 2)" stroke="black" stroke-width="2"/>
</g>
<g>
<circle cx="12" cy="12" r="11" transform="matrix(-1 0 0 1 78 28)" stroke="black" stroke-width="2"/>
</g>
<g>
<circle cx="12" cy="12" r="11" transform="matrix(-1 0 0 1 52 28)" stroke="black" stroke-width="2"/>
</g>
<g>
<circle cx="12" cy="12" r="11" transform="matrix(-1 0 0 1 26 28)" stroke="black" stroke-width="2"/>
</g>
<g>
<circle cx="12" cy="12" r="11" transform="matrix(-1 0 0 1 26 54)" stroke="black" stroke-width="2"/>
</g>
<g>
<circle cx="12" cy="12" r="11" transform="matrix(-1 0 0 1 52 54)" stroke="black" stroke-width="2"/>
</g>
<g>
<circle cx="12" cy="12" r="11" transform="matrix(-1 0 0 1 78 54)" stroke="black" stroke-width="2"/>
</g>
<defs>
</defs>
</svg>
